<?xml version="1.0" encoding="UTF-8" standalone="no"?>
<!-- Created with Inkscape (http://www.inkscape.org/) -->

<svg
   xmlns:dc="http://purl.org/dc/elements/1.1/"
   xmlns:cc="http://creativecommons.org/ns#"
   xmlns:rdf="http://www.w3.org/1999/02/22-rdf-syntax-ns#"
   xmlns:svg="http://www.w3.org/2000/svg"
   xmlns="http://www.w3.org/2000/svg"
   xmlns:sodipodi="http://sodipodi.sourceforge.net/DTD/sodipodi-0.dtd"
   xmlns:inkscape="http://www.inkscape.org/namespaces/inkscape"
   width="210mm"
   height="297mm"
   viewBox="0 0 744.09448819 1052.3622047"
   id="svg2"
   version="1.1"
   inkscape:version="0.91 r13725"
   sodipodi:docname="inicial.svg">
  <defs
     id="defs4" />
  <sodipodi:namedview
     id="base"
     pagecolor="#ffffff"
     bordercolor="#666666"
     borderopacity="1.0"
     inkscape:pageopacity="0.0"
     inkscape:pageshadow="2"
     inkscape:zoom="0.35"
     inkscape:cx="375"
     inkscape:cy="520"
     inkscape:document-units="px"
     inkscape:current-layer="layer1"
     showgrid="false"
     inkscape:window-width="1366"
     inkscape:window-height="706"
     inkscape:window-x="-8"
     inkscape:window-y="-8"
     inkscape:window-maximized="1" />
  <metadata
     id="metadata7">
    <rdf:RDF>
      <cc:Work
         rdf:about="">
        <dc:format>image/svg+xml</dc:format>
        <dc:type
           rdf:resource="http://purl.org/dc/dcmitype/StillImage" />
        <dc:title></dc:title>
      </cc:Work>
    </rdf:RDF>
  </metadata>
  <g
     inkscape:label="Capa 1"
     inkscape:groupmode="layer"
     id="layer1">
    <text
       xml:space="preserve"
       style="font-style:normal;font-weight:normal;font-size:746.7880249px;line-height:125%;font-family:sans-serif;letter-spacing:0px;word-spacing:0px;fill:#000000;fill-opacity:1;stroke:none;stroke-width:1px;stroke-linecap:butt;stroke-linejoin:miter;stroke-opacity:1"
       x="103.43771"
       y="592.51874"
       id="text3336"
       sodipodi:linespacing="125%"
       transform="matrix(1.1173242,-0.01743535,0.01396261,0.89477753,0,0)"><tspan
         sodipodi:role="line"
         id="tspan3338"
         x="103.43771"
         y="592.51874"
         style="font-style:normal;font-variant:normal;font-weight:bold;font-stretch:normal;font-family:'Script MT Bold';-inkscape-font-specification:'Script MT Bold,  Bold'" /></text>
    <text
       xml:space="preserve"
       style="font-style:normal;font-weight:normal;font-size:1160.11279297px;line-height:125%;font-family:sans-serif;letter-spacing:0px;word-spacing:0px;fill:#000000;fill-opacity:1;stroke:none;stroke-width:1px;stroke-linecap:butt;stroke-linejoin:miter;stroke-opacity:1"
       x="2.9225821"
       y="812.54022"
       id="text3340"
       sodipodi:linespacing="125%"
       transform="scale(0.83717253,1.1944969)"><tspan
         sodipodi:role="line"
         id="tspan3342"
         x="2.9225821"
         y="812.54022"
         style="font-style:normal;font-variant:normal;font-weight:normal;font-stretch:normal;font-family:'Curlz MT';-inkscape-font-specification:'Curlz MT'">Y</tspan></text>
    <path
       d="M 155.46279,1015.84 C 115.5932,1002.2334 90.808737,959.93979 87.759587,900.30722 c -2.485501,-48.60876 6.245154,-75.79139 36.133693,-112.5013 22.08903,-27.13032 44.11269,-37.43228 70.00297,-32.74522 27.56057,4.9895 40.3416,13.55352 48.19693,32.29484 16.06004,38.31613 4.38567,80.17787 -29.58866,106.0985 -19.22802,14.66999 -25.60063,14.91454 -37.50329,1.43907 -16.31223,-18.4677 -12.02612,-25.09256 15.74396,-24.33466 30.47016,0.83154 44.60803,-10.61242 44.60803,-36.10833 0,-23.73374 -12.17616,-34.16956 -39.82647,-34.13408 -32.21981,0.0421 -55.3488,8.50107 -74.04072,27.0814 -13.39005,13.31016 -16.12171,19.613 -16.12171,37.19829 0,30.4477 14.4742,53.60261 43.18303,69.08159 89.54711,48.28126 156.20951,-0.67018 228.1762,-167.55403 16.20585,-37.57976 31.94043,-77.24303 34.96578,-88.14064 5.18469,-18.67571 4.57863,-21.39266 -10.55167,-47.30319 C 365.53511,569.71032 331.20337,478.56739 288.8234,332.51063 244.34255,179.2135 192.95871,91.767536 137.41054,74.833496 103.63628,64.5373 62.165831,86.850663 41.653876,126.35581 c -10.996914,21.17962 -12.890154,30.61558 -12.890154,64.24521 0,46.35374 11.102823,72.38235 36.753872,86.16298 46.203026,24.82189 95.556266,-5.42636 95.556266,-58.56578 0,-25.77689 -10.95715,-38.10901 -33.86006,-38.10901 -20.51798,0 -28.768053,13.52363 -24.3853,39.97277 3.28495,19.82409 -1.36919,22.77226 -12.993266,8.23056 -18.206212,-22.77598 -2.051972,-81.29379 25.466306,-92.25024 20.76093,-8.26601 34.65729,-0.34338 46.02378,26.23933 29.18854,68.26285 -4.10899,175.4849 -54.49638,175.4849 -21.171289,0 -38.007418,-10.556 -59.206705,-37.12174 C 19.19654,265.02334 11.08182,238.41304 13.409467,188.45211 17.67593,96.876516 72.055353,21.373436 139.41277,13.502914 191.47859,7.4191829 239.68013,48.46438 278.59323,132.01962 c 26.06722,55.97223 43.22714,113.91575 84.27973,284.58559 30.47256,126.68506 56.60035,212.86439 64.53602,212.86439 2.21985,0 17.41559,-39.02513 33.76827,-86.72252 35.42012,-103.31313 134.29962,-384.69164 143.35794,-407.94971 l 6.38124,-16.3843 -34.90494,-6.75965 c -34.2465,-6.63214 -34.84788,-7.01689 -31.88181,-20.39629 3.93944,-17.770162 3.47428,-17.506184 19.03375,-10.801654 7.37585,3.178223 43.56573,11.564523 80.422,18.636212 36.85626,7.071692 67.86136,13.819892 68.90019,14.996022 1.03884,1.17611 0.45636,7.24738 -1.29403,13.49171 -2.35295,8.39308 -5.79221,10.6286 -13.19063,8.57382 -5.50433,-1.52873 -20.84224,-4.37898 -34.08421,-6.33391 l -24.07634,-3.5544 -21.52714,51.87772 C 588.9583,248.88451 542.235,373.73643 475.96679,558.5148 372.51433,846.97555 307.72099,971.59793 241.34124,1009.7895 c -20.49706,11.7929 -60.74342,14.6285 -85.87845,6.0505 z"
       id="path3344"
       inkscape:connector-curvature="0"
       style="fill:#00ff00" />
  </g>
</svg>
